<?xml version="1.0" encoding="UTF-8" standalone="no"?>
<svg xmlns="http://www.w3.org/2000/svg" xmlns:xlink="http://www.w3.org/1999/xlink" viewBox="0 0 72 72">
  <defs>
    <style>.cls-1{fill:url(#linear-gradient);}.cls-2{fill:url(#linear-gradient-2);}.cls-3{fill:url(#linear-gradient-3);}.cls-4{fill:url(#linear-gradient-4);}.cls-5{fill:url(#linear-gradient-5);}.cls-6{fill:url(#linear-gradient-6);}.cls-7{fill:url(#linear-gradient-7);}.cls-8{fill:url(#linear-gradient-8);}.cls-9{fill:url(#linear-gradient-9);}.cls-10{fill:url(#linear-gradient-10);}.cls-11,.cls-12,.cls-13{opacity:0.75;}.cls-11{fill:url(#linear-gradient-11);}.cls-12{fill:url(#linear-gradient-12);}.cls-13{fill:url(#linear-gradient-13);}.cls-14{fill:url(#linear-gradient-14);}</style>
    <linearGradient id="linear-gradient" x1="38.232" y1="20.268" x2="49.857" y2="8.643" gradientUnits="userSpaceOnUse">
      <stop offset="0" stop-color="#4793eb"></stop>
      <stop offset="1" stop-color="#2367ec"></stop>
    </linearGradient>
    <linearGradient id="linear-gradient-2" x1="52.361" y1="34.397" x2="63.987" y2="22.772" gradientUnits="userSpaceOnUse">
      <stop offset="0" stop-color="#db686b"></stop>
      <stop offset="1" stop-color="#c23542"></stop>
    </linearGradient>
    <linearGradient id="linear-gradient-3" x1="50.465" y1="22.293" x2="44.861" y2="27.897" gradientTransform="matrix(-0.949, -0.317, 0.317, -0.949, 89.098, 61.39)" gradientUnits="userSpaceOnUse">
      <stop offset="0" stop-color="#fed200"></stop>
      <stop offset="1" stop-color="#f59815"></stop>
    </linearGradient>
    <linearGradient id="linear-gradient-4" x1="57.561" y1="35.439" x2="55.439" y2="37.561" xlink:href="#linear-gradient"></linearGradient>
    <linearGradient id="linear-gradient-5" x1="64.707" y1="36.293" x2="63.293" y2="37.707" gradientTransform="matrix(1, 0, 0, 1, 0, 0)" xlink:href="#linear-gradient-3"></linearGradient>
    <linearGradient id="linear-gradient-6" x1="53.707" y1="10.293" x2="52.293" y2="11.707" xlink:href="#linear-gradient-2"></linearGradient>
    <linearGradient id="linear-gradient-7" x1="62.707" y1="11.293" x2="61.293" y2="12.707" gradientTransform="matrix(1, 0, 0, 1, 0, 0)" xlink:href="#linear-gradient-3"></linearGradient>
    <linearGradient id="linear-gradient-8" x1="35.561" y1="13.439" x2="33.439" y2="15.561" gradientTransform="matrix(1, 0, 0, 1, 0, 0)" xlink:href="#linear-gradient-3"></linearGradient>
    <linearGradient id="linear-gradient-9" x1="36.707" y1="7.293" x2="35.293" y2="8.707" xlink:href="#linear-gradient-2"></linearGradient>
    <linearGradient id="linear-gradient-10" x1="37.806" y1="34.207" x2="7.768" y2="64.245" gradientTransform="matrix(1, 0, 0, 1, 0, 0)" xlink:href="#linear-gradient-3"></linearGradient>
    <linearGradient id="linear-gradient-11" x1="33.414" y1="37.521" x2="8.866" y2="62.069" gradientUnits="userSpaceOnUse">
      <stop offset="0" stop-color="#fd9b02"></stop>
      <stop offset="1" stop-color="#ff7302"></stop>
    </linearGradient>
    <linearGradient id="linear-gradient-12" x1="31.469" y1="35.576" x2="6.921" y2="60.124" xlink:href="#linear-gradient-11"></linearGradient>
    <linearGradient id="linear-gradient-13" x1="32.829" y1="36.936" x2="8.281" y2="61.484" xlink:href="#linear-gradient-11"></linearGradient>
    <linearGradient id="linear-gradient-14" x1="27.918" y1="44.079" x2="41.773" y2="30.224" gradientTransform="translate(35.066 -17.163) rotate(45)" xlink:href="#linear-gradient-11"></linearGradient>
  </defs>
  <title>Party</title>
  <g id="Party">
    <path class="cls-1" d="M40,23a1,1,0,0,1-.556-1.832c2.607-1.738,2.817-3.837,3.06-6.268.256-2.564.547-5.47,3.94-7.732a1,1,0,0,1,1.11,1.664c-2.607,1.738-2.817,3.837-3.06,6.268-.256,2.564-.547,5.47-3.94,7.732A1,1,0,0,1,40,23Z"></path>
    <path class="cls-2" d="M51,34a1,1,0,0,1-.179-1.984c.1-.019,10.414-1.976,12.219-8.291a1,1,0,1,1,1.922.55c-2.146,7.511-13.308,9.622-13.782,9.709A1,1,0,0,1,51,34Z"></path>
    <path class="cls-3" d="M50.983,25.052l-1.686.032a.926.926,0,0,1-.888-1.243l.578-1.585-.552-1.593a.926.926,0,0,1,.908-1.229l1.685.06,1.345-1.017a.927.927,0,0,1,1.45.484l.463,1.621,1.384.965a.927.927,0,0,1-.013,1.528l-1.4.942-.49,1.614a.926.926,0,0,1-1.457.46Z"></path>
    <circle class="cls-4" cx="56.5" cy="36.5" r="1.5"></circle>
    <circle class="cls-5" cx="64" cy="37" r="1"></circle>
    <circle class="cls-6" cx="53" cy="11" r="1"></circle>
    <circle class="cls-7" cx="62" cy="12" r="1"></circle>
    <circle class="cls-8" cx="34.5" cy="14.5" r="1.5"></circle>
    <circle class="cls-9" cx="36" cy="8" r="1"></circle>
    <path class="cls-10" d="M22.39,18.614,53.4,49.623,12.393,64.744a4,4,0,0,1-5.137-5.138Z"></path>
    <path class="cls-11" d="M42.93,53.48,37.19,55.6A95.889,95.889,0,0,1,24.62,20.84l7.76,7.76A91.635,91.635,0,0,0,42.93,53.48Z"></path>
    <path class="cls-12" d="M30.79,57.96l-5.72,2.1A96.636,96.636,0,0,1,15.79,36.5l4.07-11.02A90.413,90.413,0,0,0,30.79,57.96Z"></path>
    <path class="cls-13" d="M18.75,62.39l-5.69,2.1A98.3,98.3,0,0,1,8.9,55.18l3.32-9.01A92.236,92.236,0,0,0,18.75,62.39Z"></path>
    <ellipse class="cls-14" cx="38.251" cy="33.747" rx="6" ry="22" transform="translate(-12.659 36.932) rotate(-45)"></ellipse>
  </g>
</svg>
